<svg width="97" height="159" fill="none" xmlns="http://www.w3.org/2000/svg">
    <path d="M8.244 94.944c14.028-11.028 16.42-31.39 5.344-45.48-11.076-14.09-31.427-16.572-45.455-5.545-14.028 11.028-16.421 31.39-5.345 45.48 11.076 14.09 31.428 16.572 45.456 5.545Z" fill="#F6B3B3"/>
    <path d="M26.43 145.363c9.587-7.536 11.222-21.451 3.653-31.08-7.57-9.628-21.477-11.325-31.064-3.789-9.586 7.536-11.222 21.451-3.652 31.08 7.57 9.629 21.477 11.326 31.063 3.789Z" fill="#EA4D4D"/>
    <path d="M62.78 103.877c8.827-6.94 10.333-19.753 3.362-28.62-6.97-8.867-19.777-10.43-28.605-3.49-8.828 6.94-10.334 19.754-3.363 28.621 6.97 8.867 19.777 10.429 28.605 3.489Z" fill="#9E0000"/>
</svg>
