<svg width="37" height="37" viewBox="0 0 37 37" fill="none" xmlns="http://www.w3.org/2000/svg">
<path d="M12.2416 30.429L9.36133 28.8857L8.64155 30.1756L11.5218 31.7189L12.2416 30.429Z" fill="#710000"/>
<path d="M11.4711 31.8973L11.434 31.8886L8.55015 30.342C8.51307 30.3333 8.48441 30.2888 8.45575 30.2442C8.42708 30.1997 8.43549 30.1638 8.48939 30.1008L9.21682 28.8336C9.27913 28.7347 9.36169 28.7162 9.4645 28.7781L12.3484 30.3247C12.3855 30.3334 12.4142 30.3779 12.4428 30.4225C12.4715 30.4671 12.4631 30.5029 12.4092 30.566L11.6817 31.8332C11.6362 31.8603 11.5453 31.9147 11.4711 31.8973ZM8.87697 30.116L11.4153 31.468L11.9558 30.4975L9.41749 29.1455L8.87697 30.116Z" fill="#710000"/>
<path d="M15.0521 27.9692L15.015 27.9605L9.97535 25.2652C9.87253 25.2032 9.85228 25.1228 9.91459 25.0239C10.9333 23.1818 10.4946 21.7168 9.86855 19.716C9.81963 19.591 9.77911 19.4301 9.73019 19.3052C9.03499 17.0989 9.30534 14.7786 10.506 12.8278C11.5905 11.039 13.3492 9.7109 15.4385 9.14144C17.5278 8.57198 19.7455 8.78936 21.7041 9.77837C23.7654 10.8293 25.271 12.5824 25.983 14.7169C26.695 16.8513 26.4331 19.1358 25.352 21.0768C24.271 23.0178 22.45 24.4448 20.241 25.024L19.9933 25.0794C17.7844 25.6587 16.364 26.0445 15.2914 27.9496C15.2829 27.9855 15.2375 28.0127 15.192 28.0398C15.1262 27.9866 15.0892 27.9779 15.0521 27.9692ZM10.3106 25.0033L15.0334 27.5486C16.1431 25.6522 17.7286 25.2294 19.855 24.6686L20.1027 24.6132C22.2291 24.0524 23.9507 22.7157 25.0149 20.8464C26.042 18.9684 26.2703 16.8274 25.6157 14.7821C24.961 12.7367 23.5212 11.0369 21.5256 10.0392C17.6827 8.07857 12.9918 9.40007 10.8229 12.9778C9.67609 14.8656 9.43101 17.0783 10.0689 19.1954C10.1094 19.3562 10.1583 19.4812 10.2072 19.6062C10.8046 21.5625 11.3006 23.1166 10.3106 25.0033Z" fill="#710000"/>
<path d="M9.0286 25.8009L10.305 23.5274L16.2784 26.7444L15.002 29.0179C14.1247 30.5905 12.0725 31.1687 10.4022 30.2851C8.76892 29.4102 8.14289 27.4094 9.0286 25.8009Z" fill="#710000"/>
<path d="M11.7399 31.0899C11.5174 31.0377 11.2663 30.941 11.0236 30.8084L9.67015 30.0748C9.00775 29.7302 8.52386 29.1249 8.33315 28.4369C8.10537 27.7403 8.19942 27.0056 8.54461 26.3677L10.1662 23.4561C10.2285 23.3572 10.311 23.3388 10.4139 23.4007L16.3873 26.6177C16.4901 26.6797 16.5104 26.7601 16.448 26.859L14.8265 29.7705C14.2153 30.8758 12.9263 31.3681 11.7399 31.0899ZM8.85307 26.5535C8.53312 27.0839 8.49295 27.7555 8.6634 28.363C8.83385 28.9706 9.26041 29.4868 9.85707 29.7781L11.2105 30.5117C12.3954 31.1301 13.8613 30.7171 14.518 29.5847L16.0689 26.8079L10.441 23.7854L8.85307 26.5535Z" fill="#710000"/>
<path d="M15.0137 27.4693L10.3937 24.9859C10.3566 24.9772 10.365 24.9414 10.3734 24.9055C10.3818 24.8696 10.4189 24.8783 10.456 24.887L15.076 27.3704C15.113 27.3791 15.1046 27.415 15.0962 27.4508C15.0507 27.478 15.0507 27.478 15.0137 27.4693Z" fill="#710000"/>
<path d="M18.7978 20.6754L14.1779 18.192C14.1408 18.1833 14.1492 18.1474 14.1576 18.1116C14.166 18.0757 14.2031 18.0844 14.2402 18.0931L18.8601 20.5765C18.8972 20.5852 18.8888 20.621 18.8804 20.6569C18.8804 20.6569 18.8349 20.6841 18.7978 20.6754Z" fill="#710000"/>
<path d="M23.3074 7.27879L23.2703 7.2701C23.1675 7.20815 23.1472 7.12773 23.2095 7.02883L24.7435 4.3238C24.8059 4.2249 24.8884 4.20642 24.9912 4.26837C25.094 4.33032 25.1143 4.41074 25.052 4.50964L23.518 7.21467C23.4641 7.27771 23.3815 7.29618 23.3074 7.27879Z" fill="#710000"/>
<path d="M29.7785 14.2079C29.7043 14.1905 29.6757 14.1459 29.647 14.1014C29.6268 14.021 29.652 13.9134 29.78 13.8677L32.8769 13.0048C32.9595 12.9864 33.0707 13.0124 33.1197 13.1374C33.1399 13.2179 33.1147 13.3254 32.9866 13.3711L29.8897 14.234C29.8526 14.2253 29.8156 14.2166 29.7785 14.2079Z" fill="#710000"/>
<path d="M31.8091 24.0675L31.772 24.0588L28.9623 22.5296C28.8595 22.4677 28.8392 22.3873 28.9015 22.2884C28.9638 22.1895 29.0464 22.171 29.1492 22.2329L31.9589 23.7621C32.0618 23.824 32.082 23.9045 32.0197 24.0034C31.9742 24.0305 31.8833 24.0849 31.8091 24.0675Z" fill="#710000"/>
<path d="M14.3146 5.92728C14.2405 5.90989 14.2118 5.86534 14.1831 5.82078L13.2483 2.80163C13.2281 2.7212 13.2533 2.61361 13.3813 2.56797C13.4639 2.54949 13.5751 2.57557 13.624 2.70055L14.5589 5.71971C14.5791 5.80013 14.5539 5.90772 14.4258 5.95337C14.3888 5.94467 14.3517 5.93598 14.3146 5.92728Z" fill="#710000"/>
<path d="M7.58939 11.0861L7.5523 11.0774L4.74257 9.54819C4.63975 9.48624 4.6195 9.40582 4.68181 9.30692C4.74412 9.20802 4.82667 9.18954 4.92949 9.25149L7.73924 10.7807C7.84206 10.8426 7.86231 10.923 7.8 11.0219C7.75452 11.0491 7.70062 11.1121 7.58939 11.0861Z" fill="#710000"/>
<path d="M12.2763 24.6323L12.2392 24.6236C12.1364 24.5617 12.1161 24.4813 12.1414 24.3737C12.1582 24.3019 14.7259 19.1907 13.4876 15.7977C13.4673 15.7173 13.4925 15.6097 13.6206 15.5641C13.7032 15.5456 13.8144 15.5717 13.8633 15.6967C15.1505 19.2146 12.6199 24.3346 12.4953 24.5324C12.4414 24.5954 12.3504 24.6497 12.2763 24.6323Z" fill="#710000"/>
<path d="M14.3953 25.7726C14.3953 25.7726 14.3582 25.764 14.3211 25.7553C14.2183 25.6933 14.2064 25.577 14.2603 25.514C14.385 25.3162 17.401 20.4615 21.1163 19.6301C21.1989 19.6116 21.3017 19.6736 21.359 19.7627C21.3793 19.8431 21.317 19.942 21.226 19.9964C17.6674 20.8266 14.6143 25.6727 14.5975 25.7444C14.552 25.7716 14.4694 25.79 14.3953 25.7726Z" fill="#710000"/>
<path d="M21.1671 19.9076L21.13 19.8989C20.7474 19.6957 20.6664 19.374 20.6056 19.1327C20.5449 18.8915 20.5043 18.7306 20.2616 18.598C20.0189 18.4654 19.8454 18.5383 19.5977 18.5937C19.3416 18.685 19.0484 18.7676 18.6658 18.5643C18.2832 18.3611 18.2022 18.0394 18.1414 17.7981C18.0807 17.5569 18.0401 17.396 17.7974 17.2634C17.5547 17.1308 17.3812 17.2036 17.1335 17.2591C16.8774 17.3504 16.5842 17.4329 16.2016 17.2297C15.819 17.0265 15.738 16.7048 15.6772 16.4635C15.6164 16.2222 15.5759 16.0614 15.3332 15.9288C15.0905 15.7962 14.917 15.869 14.6693 15.9244C14.4132 16.0157 14.12 16.0983 13.7374 15.8951C13.6346 15.8331 13.6143 15.7527 13.6766 15.6538C13.7389 15.5549 13.8215 15.5364 13.9243 15.5984C14.167 15.731 14.3406 15.6582 14.5883 15.6027C14.8444 15.5115 15.1375 15.4289 15.5201 15.6321C15.9028 15.8353 15.9838 16.157 16.0445 16.3983C16.1053 16.6396 16.1458 16.8004 16.3885 16.933C16.6312 17.0656 16.8048 16.9928 17.0525 16.9374C17.3086 16.8461 17.6017 16.7635 17.9844 16.9667C18.367 17.17 18.448 17.4916 18.5087 17.7329C18.5695 17.9742 18.61 18.135 18.8527 18.2676C19.0954 18.4002 19.269 18.3274 19.5167 18.272C19.7728 18.1807 20.066 18.0981 20.4486 18.3013C20.8312 18.5046 20.9122 18.8263 20.973 19.0675C21.0337 19.3088 21.0742 19.4697 21.317 19.6023C21.4198 19.6642 21.44 19.7446 21.3777 19.8435C21.3322 19.8707 21.2413 19.925 21.1671 19.9076Z" fill="#710000"/>
</svg>
