<svg width="82" height="151" fill="none" xmlns="http://www.w3.org/2000/svg">
    <path d="M63.575 66.596c8.04 15.93 27.53 22.296 43.529 14.22 16-8.075 22.452-27.536 14.412-43.465-8.041-15.93-27.53-22.296-43.53-14.22-15.999 8.076-22.451 27.536-14.41 43.465Z" fill="#F6B3B3"/>
    <path d="M12.95 80.53c5.494 10.886 18.812 15.237 29.746 9.718C53.63 84.729 58.04 71.43 52.545 60.544c-5.495-10.886-18.813-15.236-29.747-9.717-10.934 5.518-15.343 18.817-9.849 29.703Z" fill="#9E0000"/>
    <path d="M52.933 126.665c5.06 10.024 17.324 14.031 27.393 8.948 10.069-5.082 14.129-17.328 9.07-27.353-5.06-10.024-17.325-14.03-27.394-8.949-10.068 5.083-14.129 17.329-9.069 27.354Z" fill="#EA4D4D"/>
</svg>
